<?xml version="1.0" encoding="UTF-8"?>
<svg xmlns="http://www.w3.org/2000/svg" viewBox="0 0 64 64" width="64" height="64">
  <defs>
    <linearGradient id="g" x1="0" y1="0" x2="1" y2="1">
      <stop offset="0%" stop-color="#ff4d6d"/>
      <stop offset="50%" stop-color="#ff6b6b"/>
      <stop offset="100%" stop-color="#d90429"/>
    </linearGradient>
    <filter id="soft" x="-20%" y="-20%" width="140%" height="140%">
      <feGaussianBlur in="SourceAlpha" stdDeviation="1.2" result="blur"/>
      <feOffset in="blur" dx="0" dy="1" result="off"/>
      <feMerge>
        <feMergeNode in="off"/>
        <feMergeNode in="SourceGraphic"/>
      </feMerge>
    </filter>
  </defs>

  <!-- Heart background -->
  <path filter="url(#soft)" fill="url(#g)" d="M32 56s-1.2-1-2.7-2.2C20.4 46.8 8 36.6 8 24.2 8 16 14.3 10 22 10c4.3 0 8 2 10 5 2-3 5.7-5 10-5 7.7 0 14 6 14 14.2 0 12.4-12.4 22.6-21.3 29.6C33.2 55 32 56 32 56z"/>

  <!-- Minimal camera glyph on top -->
  <g transform="translate(16,18)">
    <rect x="4" y="8" width="24" height="16" rx="3" ry="3" fill="#0d0d0d" opacity="0.9"/>
    <rect x="8" y="6" width="6" height="4" rx="1" fill="#0d0d0d" opacity="0.9"/>
    <circle cx="20" cy="16" r="6.5" fill="#ffffff" opacity="0.9"/>
    <circle cx="20" cy="16" r="4" fill="#0d0d0d"/>
    <circle cx="22.2" cy="13.8" r="1.2" fill="#8ce99a"/>
  </g>
</svg>
